# xmcd CD database file generated by Grip 2.95
# 
# Track frame offsets:
#       150
#       18250
#       35497
#       49612
#       70131
#       86790
#       105187
#       131135
#       151751
#       165226
# 
# Disc length: 2537 seconds
# 
# Revision: 3
# Processed by: cddbd v1.4b42PL0 Copyright (c) Steve Scherf et al.
# Submitted via: Grip 2.95
# 
DISCID=6e09e70a
DTITLE=Roomful of Blues - Watch You When You Go
DYEAR=1900
DGENRE=
TTITLE0=Roll Me Over
TTITLE1=The Salt of My Tears
TTITLE2=You Give Me Nothin' but the Blues
TTITLE3=Your Love Was Never There
TTITLE4=Watch You When You Go
TTITLE5=Over My Head
TTITLE6=Backlash
TTITLE7=Fair Weather Friend
TTITLE8=Wait and See
TTITLE9=Where's Bubba?
EXTD=
EXTT0=
EXTT1=
EXTT2=
EXTT3=
EXTT4=
EXTT5=
EXTT6=
EXTT7=
EXTT8=
EXTT9=
PLAYORDER=
